<?xml version="1.0" encoding="utf-8"?>
<!-- Generator: Adobe Illustrator 18.1.1, SVG Export Plug-In . SVG Version: 6.00 Build 0)  -->
<svg version="1.1" id="instagram" xmlns="http://www.w3.org/2000/svg" xmlns:xlink="http://www.w3.org/1999/xlink" x="0px" y="0px"
	 viewBox="0 0 612 792" enable-background="new 0 0 612 792" xml:space="preserve">
<circle fill="#D7D7D7" cx="306" cy="396" r="293.8"/>
<path fill="#F7F7F7" d="M422.9,246.1H189.1c-18.2,0-33,14.8-33,33V513c0,18.2,14.8,33,33,33h233.8c18.2,0,33-14.8,33-33V279
	C455.9,260.8,441.1,246.1,422.9,246.1z M305.8,338.4c31.7,0,57.4,25.7,57.4,57.4c0,31.7-25.7,57.4-57.4,57.4s-57.4-25.7-57.4-57.4
	S274.1,338.4,305.8,338.4z M420.8,498.9c0,6.6-5.4,12-12,12H203c-6.6,0-12-5.4-12-12V373.2h26c-1.8,7.2-2.8,14.7-2.8,22.5
	c0,50.8,41.2,92,92,92s92-41.2,92-92c0-7.8-1-15.3-2.8-22.5h25.3V498.9L420.8,498.9z M421.6,326c0,6.6-5.4,12-12,12h-34
	c-6.6,0-12-5.4-12-12v-34.1c0-6.6,5.4-12,12-12h34c6.6,0,12,5.4,12,12V326z"/>
</svg>
