<?xml version="1.0" encoding="utf-8"?>
<!-- Generator: Adobe Illustrator 18.1.1, SVG Export Plug-In . SVG Version: 6.00 Build 0)  -->
<svg version="1.1" id="instagram" xmlns="http://www.w3.org/2000/svg" xmlns:xlink="http://www.w3.org/1999/xlink" x="0px" y="0px"
	 viewBox="0 0 612 792" enable-background="new 0 0 612 792" xml:space="preserve">
<circle fill="#FFFFFF" cx="306" cy="396" r="293.76"/>
<path fill="#B2B2B2" d="M422.892,246.06H189.108c-18.207,0-32.968,14.771-32.968,32.99v233.903
	c0,18.219,14.761,32.987,32.968,32.987h233.784c18.207,0,32.968-14.768,32.968-32.987V279.05
	C455.857,260.831,441.096,246.06,422.892,246.06z M305.835,338.423c31.689,0,57.381,25.704,57.381,57.412
	c0,31.705-25.692,57.409-57.381,57.409s-57.381-25.704-57.381-57.409S274.142,338.423,305.835,338.423z M420.79,498.862
	c0,6.625-5.364,11.992-11.986,11.992h-205.8c-6.622,0-11.986-5.37-11.986-11.992V373.218h26.034
	c-1.802,7.191-2.766,14.709-2.766,22.46c0,50.833,41.185,92.042,91.993,92.042s91.993-41.206,91.993-92.042
	c0-7.751-0.964-15.269-2.766-22.46h25.285V498.862L420.79,498.862z M421.558,325.999c0,6.625-5.367,11.992-11.989,11.992h-34.036
	c-6.622,0-11.986-5.37-11.986-11.992v-34.058c0-6.625,5.367-11.992,11.986-11.992h34.036c6.625,0,11.989,5.37,11.989,11.992V325.999
	z"/>
</svg>
